<?xml version="1.0" encoding="utf-8"?>
<!-- Generator: Adobe Illustrator 24.3.0, SVG Export Plug-In . SVG Version: 6.00 Build 0)  -->
<svg version="1.1" id="Layer_1" xmlns="http://www.w3.org/2000/svg" xmlns:xlink="http://www.w3.org/1999/xlink" x="0px" y="0px"
	 viewBox="0 0 800 800" enable-background="new 0 0 800 800" xml:space="preserve">
<g>
	<path fill="#787EBB" d="M652.783,81.199c1.266-3.643,3.893-6.584,7.404-8.287c2.026-0.984,4.194-1.48,6.37-1.48
		c1.594,0,3.187,0.269,4.731,0.801l0.838,0.291c7.572,2.627,11.597,10.928,8.97,18.5l-98.25,283.157
		c-2.627,7.572-10.909,11.588-18.495,8.975l-0.847-0.296c-3.643-1.266-6.589-3.893-8.291-7.404
		c-1.703-3.51-1.944-7.454-0.678-11.101L652.783,81.199z"/>
	<path fill="#BFC6E4" d="M456.947,134.217c4.23-16.943,16.483-30.657,32.779-36.686c45.086-16.674,68.781-21.036,78.762-21.036
		c2.513,0,4.157,0.278,5.054,0.706l0.81,0.811c2.117,4.467,0.537,27.392-20.33,83.812c-6.029,16.301-19.743,28.553-36.686,32.783
		c-14.258,3.56-28.577,0.994-40.187-7.016c3.701-3.701,7.401-7.401,11.102-11.102c11.84,1.515,23.679,3.029,35.519,4.544
		c11.872,1.519,11.761-17.146,0-18.65c-6.328-0.81-12.657-1.619-18.985-2.429c5.175-5.175,10.349-10.35,15.524-15.524
		c6.342,0.812,12.685,1.623,19.027,2.434c5.004,0.64,9.325-4.744,9.325-9.325c0-5.571-4.306-8.683-9.325-9.325
		c-0.831-0.106-1.661-0.213-2.492-0.319c3.399-3.399,6.798-6.799,10.197-10.198c8.498-8.498-4.686-21.689-13.187-13.188
		c-3.222,3.222-6.444,6.445-9.667,9.667c-0.043-0.452-0.085-0.904-0.128-1.357c-0.472-5.014-3.948-9.325-9.325-9.325
		c-4.678,0-9.8,4.281-9.325,9.325c0.577,6.134,1.154,12.268,1.731,18.402c-5.042,5.042-10.084,10.084-15.126,15.126
		c-0.551-5.86-1.103-11.719-1.655-17.579c-1.115-11.847-19.776-11.963-18.65,0c1.087,11.542,2.173,23.083,3.259,34.625
		c-3.67,3.671-7.343,7.342-11.013,11.013C455.951,162.803,453.387,148.471,456.947,134.217z"/>
	<path fill="#787EBB" d="M405.555,99.663c3.561-3.169,9.161-3.834,13.327-3.87c13.314,48.41,20.166,73.239,24.387,86.198
		l-42.532-65.18C400.314,108.651,401.931,102.891,405.555,99.663z"/>
	<path fill="#83C9EF" d="M445.446,207.925c51.252,0,93.375,37.844,99.634,87.682H345.873
		C352.19,246.237,394.386,207.925,445.446,207.925z"/>
	<path fill="#83C9EF" d="M284.311,266.398c18.705,0,34.574,12.191,39.986,29.209h-79.981
		C249.741,278.686,265.611,266.398,284.311,266.398z"/>
	<path fill="#787EBB" d="M124.46,72.525l0.847-0.291c1.575-0.546,3.178-0.806,4.754-0.806c6.019,0,11.665,3.775,13.746,9.771
		l98.25,283.157c1.266,3.647,1.025,7.59-0.678,11.101c-1.703,3.511-4.649,6.138-8.291,7.404l-0.838,0.291
		c-7.599,2.641-15.877-1.398-18.504-8.97L115.499,91.025C112.872,83.453,116.893,75.153,124.46,72.525z"/>
	<path fill="#BFC6E4" d="M676.892,705.841l-0.096,1.348c0,11.793-9.598,21.391-21.391,21.391H144.599
		c-11.797,0-21.396-9.598-21.396-21.391v-0.678L68.97,335.029c0.328-11.511,9.794-20.772,21.387-20.772h82.855l18.853,54.335
		c-3.864,7.143-5.963,15.187-5.963,23.393c0,27.092,22.042,49.134,49.134,49.134c27.092,0,49.134-22.042,49.134-49.134
		c0-19.137-11.288-36.594-28.453-44.578l-11.503-33.15h307.761l-12.317,35.497c-14.816,8.768-24.224,24.803-24.224,42.231
		c0,27.092,22.042,49.134,49.134,49.134c27.092,0,49.134-22.042,49.134-49.134c0-9.664-2.878-19.011-8.13-26.986l17.607-50.743
		h86.269c11.588,0,21.054,9.261,21.382,20.772L676.892,705.841z"/>
	<g>
		<path fill="#1D1751" d="M709.648,295.607H629.85l68.866-198.471c5.992-17.289-3.192-36.23-20.485-42.231l-0.838-0.291
			c-8.342-2.896-17.343-2.359-25.343,1.516c-7.991,3.875-13.988,10.609-16.888,18.96l-72.866,209.999
			c-5.716-29.151-21.917-54.289-44.506-71.498c1.356-0.258,2.713-0.549,4.068-0.888c22.925-5.724,41.489-22.325,49.658-44.408
			c32.26-87.227,21.054-98.441,16.255-103.245l-1.284-1.275c-4.776-4.785-16-15.996-103.231,16.264
			c-17.503,6.476-31.459,19.542-39.387,36.077c-3.096-11.119-6.117-22.041-8.686-31.387l-1.493-5.418l-5.482-1.216
			c-2.167-0.474-21.473-4.326-34.932,7.531c-8.697,7.663-12.38,19.474-10.946,35.115l0.209,2.304l44.186,67.715
			c-44.415,7.042-80.714,38.717-94.462,80.539c-11.107-14.344-28.452-23.549-47.951-23.549c-22.393,0-41.942,12.231-52.449,30.331
			L161.428,75.089c-5.997-17.293-24.956-26.491-42.227-20.476l-0.847,0.291c-8.351,2.9-15.085,8.897-18.96,16.888
			c-3.875,7.995-4.412,16.997-1.516,25.343l68.862,198.471H90.356c-22.083,0-40.046,17.962-40.046,40.041v0.678l54.247,371.581
			c0.387,21.751,18.199,39.322,40.041,39.322h510.806c21.837,0,39.65-17.571,40.037-39.322l54.152-370.912l0.096-1.348
			C749.689,313.57,731.727,295.607,709.648,295.607z M652.783,81.199c1.266-3.643,3.893-6.584,7.404-8.287
			c2.026-0.984,4.194-1.48,6.37-1.48c1.594,0,3.187,0.269,4.731,0.801l0.838,0.291c7.572,2.627,11.597,10.928,8.97,18.5
			l-98.25,283.157c-2.627,7.572-10.909,11.588-18.495,8.975l-0.847-0.296c-3.643-1.266-6.589-3.893-8.291-7.404
			c-1.703-3.51-1.944-7.454-0.678-11.101L652.783,81.199z M595.252,391.986c0,16.811-13.673,30.484-30.484,30.484
			s-30.484-13.673-30.484-30.484c0-4.279,0.933-8.421,2.6-12.215c0.442,1.293,0.937,2.574,1.543,3.824
			c3.875,7.991,10.609,13.988,18.955,16.883l0.847,0.296c3.588,1.243,7.249,1.835,10.85,1.835c10.1,0,19.706-4.682,25.993-12.585
			C595.116,390.681,595.252,391.323,595.252,391.986z M456.947,134.217c4.23-16.943,16.483-30.657,32.779-36.686
			c45.086-16.674,68.781-21.036,78.762-21.036c2.513,0,4.157,0.278,5.054,0.706l0.81,0.811c2.117,4.467,0.537,27.392-20.33,83.812
			c-6.029,16.301-19.743,28.553-36.686,32.783c-14.258,3.56-28.577,0.994-40.187-7.016c3.701-3.701,7.401-7.401,11.102-11.102
			c11.84,1.515,23.679,3.029,35.519,4.544c11.872,1.519,11.761-17.146,0-18.65c-6.328-0.81-12.657-1.619-18.985-2.429
			c5.175-5.175,10.349-10.35,15.524-15.524c6.342,0.812,12.685,1.623,19.027,2.434c5.004,0.64,9.325-4.744,9.325-9.325
			c0-5.571-4.306-8.683-9.325-9.325c-0.831-0.106-1.661-0.213-2.492-0.319c3.399-3.399,6.798-6.799,10.197-10.198
			c8.498-8.498-4.686-21.689-13.187-13.188c-3.222,3.222-6.444,6.445-9.667,9.667c-0.043-0.452-0.085-0.904-0.128-1.357
			c-0.472-5.014-3.948-9.325-9.325-9.325c-4.678,0-9.8,4.281-9.325,9.325c0.577,6.134,1.154,12.268,1.731,18.402
			c-5.042,5.042-10.084,10.084-15.126,15.126c-0.551-5.86-1.103-11.719-1.655-17.579c-1.115-11.847-19.776-11.963-18.65,0
			c1.087,11.542,2.173,23.083,3.259,34.625c-3.67,3.671-7.343,7.342-11.013,11.013C455.951,162.803,453.387,148.471,456.947,134.217
			z M405.555,99.663c3.561-3.169,9.161-3.834,13.327-3.87c13.314,48.41,20.166,73.239,24.387,86.198l-42.532-65.18
			C400.314,108.651,401.931,102.891,405.555,99.663z M445.446,207.925c51.252,0,93.375,37.844,99.634,87.682H345.873
			C352.19,246.237,394.386,207.925,445.446,207.925z M284.311,266.398c18.705,0,34.574,12.191,39.986,29.209h-79.981
			C249.741,278.686,265.611,266.398,284.311,266.398z M124.46,72.525l0.847-0.291c1.575-0.546,3.178-0.806,4.754-0.806
			c6.019,0,11.665,3.775,13.746,9.771l98.25,283.157c1.266,3.647,1.025,7.59-0.678,11.101c-1.703,3.511-4.649,6.138-8.291,7.404
			l-0.838,0.291c-7.599,2.641-15.877-1.398-18.504-8.97L115.499,91.025C112.872,83.453,116.893,75.153,124.46,72.525z
			 M258.162,383.594c1.251-2.581,2.115-5.272,2.667-8.007c3.085,4.813,4.891,10.459,4.891,16.398
			c0,16.811-13.673,30.484-30.484,30.484c-16.254,0-29.536-12.793-30.4-28.835c6.11,5.694,14.218,8.974,22.674,8.974
			c3.606,0,7.267-0.592,10.859-1.84l0.838-0.291C247.553,397.582,254.287,391.585,258.162,383.594z M676.892,705.841l-0.096,1.348
			c0,11.793-9.598,21.391-21.391,21.391H144.599c-11.797,0-21.396-9.598-21.396-21.391v-0.678L68.97,335.029
			c0.328-11.511,9.794-20.772,21.387-20.772h82.855l18.853,54.335c-3.864,7.143-5.963,15.187-5.963,23.393
			c0,27.092,22.042,49.134,49.134,49.134c27.092,0,49.134-22.042,49.134-49.134c0-19.137-11.288-36.594-28.453-44.578l-11.503-33.15
			h307.761l-12.317,35.497c-14.816,8.768-24.224,24.803-24.224,42.231c0,27.092,22.042,49.134,49.134,49.134
			c27.092,0,49.134-22.042,49.134-49.134c0-9.664-2.878-19.011-8.13-26.986l17.607-50.743h86.269
			c11.588,0,21.054,9.261,21.382,20.772L676.892,705.841z"/>
	</g>
	<path fill="#1D1751" d="M573.231,512.092c-115.487,0-230.973,0-346.46,0c-12.001,0-12.02,18.65,0,18.65
		c115.487,0,230.973,0,346.46,0C585.232,530.742,585.251,512.092,573.231,512.092z"/>
	<path fill="#1D1751" d="M547.066,626.371c-98.044,0-196.087,0-294.131,0c-12,0-12.02,18.65,0,18.65c98.044,0,196.087,0,294.131,0
		C559.066,645.021,559.086,626.371,547.066,626.371z"/>
</g>
</svg>
